<svg width="64" height="38" viewBox="0 0 64 38" fill="none" xmlns="http://www.w3.org/2000/svg">
<path d="M32.858 11.1038C32.858 11.1038 30.3535 9.8931 28.2498 8.9851C26.2463 8.0771 25.6452 6.86644 27.1479 6.362C28.5504 5.85756 31.8562 5.65578 34.4608 5.75667C35.5627 5.85756 39.0689 6.05933 39.0689 6.05933C41.6735 6.16022 41.8739 7.06822 39.4696 7.87533L32.858 11.1038Z" fill="#656293"/>
<path d="M8.21449 20.5871C8.21449 20.5871 5.60989 21.596 5.40954 22.8067C5.10901 23.8156 4.20742 37.6373 62.2097 5.05029C65.6158 3.13341 63.9128 1.01475 59.2044 0.510307C44.9793 -1.10391 48.4855 0.00586333 8.21449 20.5871Z" fill="#DAE3EA"/>
<path d="M21.0371 13.9286C21.0371 13.9286 8.21449 10.0948 4.00707 8.68238C1.3023 7.77438 0 10.801 0 10.801C0 10.801 5.00884 23.1094 5.50972 22.8068L20.9369 14.8366C21.4378 14.5339 21.4378 14.1304 21.0371 13.9286Z" fill="#656293"/>
<path d="M34.7613 25.7324C34.7613 25.7324 24.3429 26.6404 17.2304 33.9044C16.8297 34.3079 16.0283 35.4177 17.3306 36.0231C19.835 36.7293 25.7454 37.3346 35.7631 32.492L34.7613 25.7324Z" fill="#C5D0D8"/>
<path d="M35.8633 32.391C34.9617 32.6936 33.9599 31.483 33.459 29.667C33.0583 27.851 33.3588 26.1359 34.2604 25.8332C35.162 25.5306 36.1638 26.7412 36.6647 28.5572C37.0654 30.3732 36.7649 32.0883 35.8633 32.391Z" fill="#94989B"/>
<path d="M33.2587 15.3407C30.7542 16.4505 29.5521 17.0558 28.1496 19.3763L17.7313 35.1149C16.3288 37.4353 17.3306 38.5451 19.9352 37.738C22.5398 36.83 26.1461 34.5096 27.8491 32.3909L44.3783 12.6168C46.0813 10.4981 45.4802 9.79187 42.9758 10.9016L33.2587 15.3407Z" fill="#656293"/>
<path d="M35.0619 29.869C34.7613 28.5574 34.1603 27.5485 33.459 27.2458C33.3589 27.9521 33.3589 28.7592 33.5592 29.6672C33.8597 30.9787 34.4608 31.9876 35.162 32.2903C35.2622 31.5841 35.2622 30.7769 35.0619 29.869Z" fill="#3E4347"/>
<path d="M54.396 0.712158C53.8951 1.51927 51.1903 3.8397 51.1903 3.8397C51.1903 3.8397 51.6912 4.7477 53.294 4.24326C54.5963 3.8397 55.8986 2.62904 56.5998 1.2166L54.396 0.712158Z" fill="#3E4347"/>
<path d="M21.2375 18.5693C21.7907 18.5693 22.2392 18.1176 22.2392 17.5604C22.2392 17.0032 21.7907 16.5515 21.2375 16.5515C20.6842 16.5515 20.2357 17.0032 20.2357 17.5604C20.2357 18.1176 20.6842 18.5693 21.2375 18.5693Z" fill="#3E4347"/>
<path d="M24.8438 16.7534C25.3971 16.7534 25.8456 16.3017 25.8456 15.7445C25.8456 15.1873 25.3971 14.7356 24.8438 14.7356C24.2906 14.7356 23.8421 15.1873 23.8421 15.7445C23.8421 16.3017 24.2906 16.7534 24.8438 16.7534Z" fill="#3E4347"/>
<path d="M28.4502 14.8364C29.0034 14.8364 29.4519 14.3847 29.4519 13.8275C29.4519 13.2703 29.0034 12.8186 28.4502 12.8186C27.8969 12.8186 27.4484 13.2703 27.4484 13.8275C27.4484 14.3847 27.8969 14.8364 28.4502 14.8364Z" fill="#3E4347"/>
<path d="M32.1567 12.9196C32.71 12.9196 33.1585 12.4679 33.1585 11.9107C33.1585 11.3535 32.71 10.9019 32.1567 10.9019C31.6035 10.9019 31.155 11.3535 31.155 11.9107C31.155 12.4679 31.6035 12.9196 32.1567 12.9196Z" fill="#3E4347"/>
<path d="M35.7631 11.0026C36.3164 11.0026 36.7649 10.5509 36.7649 9.99375C36.7649 9.43656 36.3164 8.98486 35.7631 8.98486C35.2098 8.98486 34.7613 9.43656 34.7613 9.99375C34.7613 10.5509 35.2098 11.0026 35.7631 11.0026Z" fill="#3E4347"/>
<path d="M39.3695 9.18672C39.9227 9.18672 40.3712 8.73502 40.3712 8.17783C40.3712 7.62064 39.9227 7.16895 39.3695 7.16895C38.8162 7.16895 38.3677 7.62064 38.3677 8.17783C38.3677 8.73502 38.8162 9.18672 39.3695 9.18672Z" fill="#3E4347"/>
<path d="M42.9758 7.26972C43.5291 7.26972 43.9776 6.81803 43.9776 6.26084C43.9776 5.70365 43.5291 5.25195 42.9758 5.25195C42.4226 5.25195 41.974 5.70365 41.974 6.26084C41.974 6.81803 42.4226 7.26972 42.9758 7.26972Z" fill="#3E4347"/>
</svg>
